<?xml version="1.0" encoding="UTF-8" standalone="no"?>
<!-- Generator: Gravit.io -->

<svg
   xmlns:dc="http://purl.org/dc/elements/1.1/"
   xmlns:cc="http://creativecommons.org/ns#"
   xmlns:rdf="http://www.w3.org/1999/02/22-rdf-syntax-ns#"
   xmlns:svg="http://www.w3.org/2000/svg"
   xmlns="http://www.w3.org/2000/svg"
   xmlns:sodipodi="http://sodipodi.sourceforge.net/DTD/sodipodi-0.dtd"
   xmlns:inkscape="http://www.inkscape.org/namespaces/inkscape"
   style="isolation:isolate"
   viewBox="0 0 93.19593 126.78137"
   width="93.19593"
   height="126.78137"
   version="1.1"
   id="svg13"
   sodipodi:docname="svelte-logo(1).svg"
   inkscape:version="0.92.2 5c3e80d, 2017-08-06">
  <metadata
     id="metadata17">
    <rdf:RDF>
      <cc:Work
         rdf:about="">
        <dc:format>image/svg+xml</dc:format>
        <dc:type
           rdf:resource="http://purl.org/dc/dcmitype/StillImage" />
        <dc:title></dc:title>
      </cc:Work>
    </rdf:RDF>
  </metadata>
  <sodipodi:namedview
     pagecolor="#ffffff"
     bordercolor="#666666"
     borderopacity="1"
     objecttolerance="10"
     gridtolerance="10"
     guidetolerance="10"
     inkscape:pageopacity="0"
     inkscape:pageshadow="2"
     inkscape:window-width="1107"
     inkscape:window-height="721"
     id="namedview15"
     showgrid="false"
     inkscape:zoom="1.0300053"
     inkscape:cx="254.27558"
     inkscape:cy="73.807952"
     inkscape:window-x="189"
     inkscape:window-y="87"
     inkscape:window-maximized="0"
     inkscape:current-layer="svg13"
     fit-margin-top="0"
     fit-margin-left="0"
     fit-margin-right="0"
     fit-margin-bottom="0" />
  <defs
     id="defs5">
    <clipPath
       id="_clipPath_tx9IWIff9jpFhn3EvaPjyIq3XXdSNcS0">
      <rect
         width="519"
         height="139"
         id="rect2"
         x="0"
         y="0" />
    </clipPath>
  </defs>
  <g
     clip-path="url(#_clipPath_tx9IWIff9jpFhn3EvaPjyIq3XXdSNcS0)"
     id="g11"
     inkscape:export-xdpi="95.919998"
     inkscape:export-ydpi="95.919998"
     transform="translate(-22.975806,-7.0562131)">
    <path
       d="M 110.23,28.39 C 99.83,13.51 97.139206,0.86190476 82.289206,10.321905 L 38.36,35.18 c -7.117,4.47 -12.025,11.729 -13.52,20 -1.247,6.904 -0.156,14.026 3.1,20.24 -2.232,3.386 -3.752,7.189 -4.47,11.18 -1.505,8.446 0.46,17.142 5.45,24.12 10.4,14.88 13.090794,29.58762 27.940794,20.12762 L 100.79,104 c 7.109,-4.479 12.013,-11.734 13.52,-20 1.243,-6.902 0.148,-14.02 -3.11,-20.23 2.231,-3.387 3.754,-7.19 4.48,-11.18 1.5,-8.446 -0.464,-17.14 -5.45,-24.12"
       id="path7"
       inkscape:connector-curvature="0"
       style="fill:#00c4a7"
       sodipodi:nodetypes="ccccccccccccc" />
    <path
       d="m 61.89,112.135 c -8.41,2.183 -17.288,-1.111 -22.24,-8.25 -2.999,-4.195 -4.178,-9.423 -3.27,-14.5 0.147,-0.817 0.355,-1.623 0.62,-2.41 l 0.49,-1.5 1.34,1 c 3.08,2.249 6.519,3.96 10.17,5.06 l 1,0.29 -0.09,1 c -0.096,1.371 0.289,2.733 1.09,3.85 1.494,2.148 4.168,3.137 6.7,2.48 0.565,-0.152 1.105,-0.388 1.6,-0.7 l 26.04,-16.62 c 1.293,-0.813 2.183,-2.135 2.45,-3.64 0.269,-1.532 -0.091,-3.107 -1,-4.37 -1.494,-2.147 -4.168,-3.137 -6.7,-2.48 -0.566,0.15 -1.106,0.386 -1.6,0.7 l -10,6.35 c -1.636,1.037 -3.419,1.82 -5.29,2.32 -8.395,2.169 -17.253,-1.118 -22.2,-8.24 -2.99,-4.199 -4.162,-9.426 -3.25,-14.5 0.893,-4.984 3.844,-9.362 8.13,-12.06 L 72,29.295 c 1.626,-1.035 3.399,-1.817 5.26,-2.32 8.407,-2.183 17.283,1.111 22.23,8.25 3.002,4.194 4.185,9.422 3.28,14.5 -0.156,0.822 -0.363,1.634 -0.62,2.43 l -0.5,1.5 -1.33,-1 c -3.087,-2.265 -6.536,-3.99 -10.2,-5.1 l -1,-0.29 0.09,-1 c 0.115,-1.378 -0.26,-2.752 -1.06,-3.88 -1.503,-2.11 -4.155,-3.069 -6.66,-2.41 -0.566,0.15 -1.106,0.386 -1.6,0.7 L 53.8,57.265 c -1.288,0.815 -2.177,2.131 -2.45,3.63 -0.264,1.535 0.096,3.112 1,4.38 1.487,2.127 4.133,3.115 6.65,2.48 0.564,-0.154 1.103,-0.39 1.6,-0.7 l 10,-6.34 c 1.634,-1.048 3.422,-1.834 5.3,-2.33 8.405,-2.189 17.282,1.102 22.23,8.24 3,4.195 4.183,9.423 3.28,14.5 -0.893,4.985 -3.844,9.363 -8.13,12.06 l -26.09,16.62 c -1.639,1.041 -3.426,1.826 -5.3,2.33"
       id="path9"
       inkscape:connector-curvature="0"
       style="fill:#ffffff" />
  </g>
</svg>
